# xmcd CD database file
#
# Track frame offsets:
#	150
#	7685
#	31982
#	64840
#	93291
#	145762
#	191066
#	245294
#
# Disc length: 4666 seconds
#
# Revision: 0
# Processed by: cddbd v1.5.1PL2 Copyright (c) Steve Scherf et al.
# Submitted via: CDex 1.51
#
DISCID=5c123808
DTITLE=Oles - Trzaska - Oles - danziger strassenmusik
DYEAR=2003
DGENRE=Jazz
TTITLE0=Dlugie Pobrzeze
TTITLE1=Golebie wieczorem
TTITLE2=Serce Mottlau
TTITLE3=Hanza Soul
TTITLE4=Machandel and Dagoma
TTITLE5=Kill Still Good Night
TTITLE6=Lonely Woman
TTITLE7=MIKROMINI
EXTD=YEAR: 2003
EXTT0=
EXTT1=
EXTT2=
EXTT3=
EXTT4=
EXTT5=
EXTT6=
EXTT7=
PLAYORDER=
